<?xml version="1.0" encoding="UTF-8" standalone="no"?>
<!-- Generator: Adobe Illustrator 19.0.0, SVG Export Plug-In . SVG Version: 6.00 Build 0)  -->

<svg
   xmlns:dc="http://purl.org/dc/elements/1.1/"
   xmlns:cc="http://creativecommons.org/ns#"
   xmlns:rdf="http://www.w3.org/1999/02/22-rdf-syntax-ns#"
   xmlns:svg="http://www.w3.org/2000/svg"
   xmlns="http://www.w3.org/2000/svg"
   xmlns:sodipodi="http://sodipodi.sourceforge.net/DTD/sodipodi-0.dtd"
   xmlns:inkscape="http://www.inkscape.org/namespaces/inkscape"
   version="1.1"
   id="Layer_1"
   x="0px"
   y="0px"
   viewBox="0 0 527.53639 133"
   xml:space="preserve"
   sodipodi:docname="spid-idp-testenv2.svg"
   inkscape:version="0.92.3 (2405546, 2018-03-11)"
   width="527.53638"
   height="133"><metadata
   id="metadata229"><rdf:RDF><cc:Work
       rdf:about=""><dc:format>image/svg+xml</dc:format><dc:type
         rdf:resource="http://purl.org/dc/dcmitype/StillImage" /><dc:title></dc:title></cc:Work></rdf:RDF></metadata><defs
   id="defs227" /><sodipodi:namedview
   pagecolor="#ffffff"
   bordercolor="#666666"
   borderopacity="1"
   objecttolerance="10"
   gridtolerance="10"
   guidetolerance="10"
   inkscape:pageopacity="0"
   inkscape:pageshadow="2"
   inkscape:window-width="1440"
   inkscape:window-height="835"
   id="namedview225"
   showgrid="false"
   inkscape:zoom="0.44462743"
   inkscape:cx="730.24022"
   inkscape:cy="-175.19971"
   inkscape:window-x="0"
   inkscape:window-y="0"
   inkscape:window-maximized="1"
   inkscape:current-layer="Layer_1"
   fit-margin-top="0"
   fit-margin-left="0"
   fit-margin-right="0"
   fit-margin-bottom="0" />
<style
   type="text/css"
   id="style161">
	.st0{fill:#0047BB;}
	.st1{fill:#FFFFFF;}
	.st2{fill:#EDDB00;}
</style>

<g
   style="fill-rule:evenodd"
   id="g4539"
   transform="matrix(0,0.08985989,-0.08985989,0,482.24968,53.686669)"><path
     style="fill:#ffcc00"
     inkscape:connector-curvature="0"
     id="path3652"
     transform="matrix(0.98245,0,0,0.98245,-863.27,-158.17)"
     d="m 1083.1,779.53 c 0,129.81 -105.23,235.04 -235.04,235.04 -129.81,0 -235.04,-105.23 -235.04,-235.04 0,-129.81 105.23,-235.04 235.04,-235.04 129.81,0 235.04,105.23 235.04,235.04 z" /><path
     inkscape:connector-curvature="0"
     id="path1874"
     d="m -28.369,398.04 -1.7494,209.63 h 209.63 c 0,-115.14 -92.962,-208.69 -207.88,-209.63 z m -1.7494,209.63 h -209.63 c 0,115.14 92.962,208.69 207.88,209.63 l 1.7494,-209.63 z" /></g><path
   inkscape:connector-curvature="0"
   id="XMLID_85_"
   class="st0"
   d="m 312.1487,47.567954 c -11.98713,-1.522174 -20.54936,-2.283262 -25.30616,-2.283262 -4.75679,0 -7.99141,0.380544 -9.32331,1.331903 -1.33191,0.951359 -2.09299,2.283262 -2.09299,4.18598 0,1.902718 0.95135,3.234621 2.85407,3.995708 1.90272,0.761088 6.84979,1.712447 14.65093,3.234621 7.80115,1.331903 13.5093,3.805436 16.74392,6.849786 3.23462,3.23462 4.94707,8.371959 4.94707,15.602289 0,15.79256 -9.70386,23.593701 -29.30186,23.593701 -6.46924,0 -14.27039,-0.95136 -23.40343,-2.6638 l -4.7568,-0.95136 0.57082,-16.363377 c 11.98712,1.522175 20.54935,2.283262 25.11588,2.283262 4.75679,0 7.99141,-0.380544 9.70386,-1.331903 1.71245,-0.951359 2.47353,-2.283262 2.47353,-4.18598 0,-1.902718 -0.95136,-3.234621 -2.6638,-3.995708 -1.71245,-0.951359 -6.46924,-1.902718 -14.08012,-3.234621 -7.61087,-1.331903 -13.12875,-3.424893 -16.93419,-6.469242 -3.61516,-3.044349 -5.51788,-8.37196 -5.51788,-16.173104 0,-7.801145 2.6638,-13.509299 7.80114,-17.505007 5.32761,-3.995708 11.98713,-5.898427 20.35909,-5.898427 5.70815,0 13.5093,0.95136 23.5937,2.854078 l 4.7568,0.951359 z"
   style="fill:#0047bb;stroke-width:1.90271819" /><path
   inkscape:connector-curvature="0"
   id="XMLID_82_"
   class="st0"
   d="m 360.85828,45.094421 c -3.61516,0 -7.23033,0.761087 -11.03576,2.283261 l -1.71245,0.761088 v 38.244635 c 4.37625,0.570815 7.99142,0.951359 10.65522,0.951359 5.70816,0 9.51359,-1.712446 11.60658,-4.947067 2.09299,-3.234621 3.23462,-8.942776 3.23462,-16.934192 0,-13.699571 -4.18598,-20.359084 -12.74821,-20.359084 M 328.70234,133 V 29.30186 h 19.40773 v 3.995708 c 6.27897,-3.805436 11.79685,-5.708155 16.74392,-5.708155 9.89414,0 17.12446,3.04435 21.69099,8.752504 4.75679,5.898426 7.04006,15.982833 7.04006,30.062947 0,14.080115 -2.66381,23.974249 -7.80115,29.492132 -5.13734,5.517884 -13.69957,8.181684 -25.49642,8.181684 -3.23462,0 -6.65952,-0.38054 -10.46495,-0.95136 l -1.71245,-0.38054 v 30.06295 h -19.40773 z"
   style="fill:#0047bb;stroke-width:1.90271819" /><path
   inkscape:connector-curvature="0"
   id="XMLID_79_"
   class="st0"
   d="m 505.84541,84.670959 2.09299,-0.380544 V 45.855508 c -5.32761,-0.951359 -10.08441,-1.522175 -14.27039,-1.522175 -7.80114,0 -11.79685,7.040058 -11.79685,21.120172 0,7.610873 0.95136,12.938484 2.6638,16.173104 1.71245,3.234621 4.56653,4.756796 8.75251,4.756796 4.18598,0 8.18169,-0.380544 12.55794,-1.712446 M 527.53639,0 v 102.36624 h -19.40772 v -3.044352 c -6.84979,3.234622 -12.74821,4.756792 -17.69528,4.756792 -10.65522,0 -18.07582,-3.04435 -22.2618,-9.133043 -4.18598,-6.088699 -6.27897,-15.792561 -6.27897,-29.111588 0,-13.319028 2.47353,-23.02289 7.61087,-29.111588 4.94707,-6.088698 12.55794,-9.133048 22.64235,-9.133048 3.04435,0 7.4206,0.570816 12.93848,1.522175 l 2.85408,0.570815 V 0 Z"
   style="fill:#0047bb;stroke-width:1.90271819" /><path
   inkscape:connector-curvature="0"
   id="XMLID_77_"
   class="st0"
   d="m 406.90406,101.22461 c 0,-6.088702 1.90272,-11.035769 5.89843,-15.031477 3.80544,-3.995708 8.7525,-5.898426 14.8412,-5.898426 6.0887,0 11.03577,2.09299 14.65093,6.088698 3.80543,4.18598 5.70816,9.133047 5.70816,15.221745"
   style="fill:#0047bb;stroke-width:1.90271819" /><text
   xml:space="preserve"
   style="font-style:normal;font-weight:normal;font-size:10px;line-height:25px;font-family:Sans;letter-spacing:0px;word-spacing:0px;fill:#666666;fill-opacity:1;stroke:none;stroke-width:1px;stroke-linecap:butt;stroke-linejoin:miter;stroke-opacity:1"
   x="-3.404"
   y="103.50739"
   id="text5204"><tspan
     sodipodi:role="line"
     id="tspan5202"
     x="-3.404"
     y="103.50739"
     style="font-style:normal;font-variant:normal;font-weight:bold;font-stretch:normal;font-size:148px;line-height:36px;font-family:Titillium;-inkscape-font-specification:'Titillium Bold';fill:#666666">test</tspan></text>
</svg>